<?xml version="1.0" encoding="UTF-8" standalone="no"?>
<!-- Generator: Adobe Illustrator 20.0.0, SVG Export Plug-In . SVG Version: 6.00 Build 0)  -->

<svg
   xmlns:dc="http://purl.org/dc/elements/1.1/"
   xmlns:cc="http://creativecommons.org/ns#"
   xmlns:rdf="http://www.w3.org/1999/02/22-rdf-syntax-ns#"
   xmlns:svg="http://www.w3.org/2000/svg"
   xmlns="http://www.w3.org/2000/svg"
   xmlns:sodipodi="http://sodipodi.sourceforge.net/DTD/sodipodi-0.dtd"
   xmlns:inkscape="http://www.inkscape.org/namespaces/inkscape"
   version="1.1"
   id="Layer_1"
   x="0px"
   y="0px"
   viewBox="0 0 405.2 94.9"
   style="enable-background:new 0 0 405.2 94.9;"
   xml:space="preserve"
   inkscape:version="0.91 r13725"
   sodipodi:docname="logo.svg"><metadata
     id="metadata5984"><rdf:RDF><cc:Work
         rdf:about=""><dc:format>image/svg+xml</dc:format><dc:type
           rdf:resource="http://purl.org/dc/dcmitype/StillImage" /><dc:title></dc:title></cc:Work></rdf:RDF></metadata><defs
     id="defs5982" /><sodipodi:namedview
     pagecolor="#008800"
     bordercolor="#666666"
     borderopacity="1"
     objecttolerance="10"
     gridtolerance="10"
     guidetolerance="10"
     inkscape:pageopacity="0"
     inkscape:pageshadow="2"
     inkscape:window-width="1920"
     inkscape:window-height="1031"
     id="namedview5980"
     showgrid="false"
     inkscape:zoom="1.5547877"
     inkscape:cx="150.05491"
     inkscape:cy="57.179105"
     inkscape:window-x="0"
     inkscape:window-y="0"
     inkscape:window-maximized="1"
     inkscape:current-layer="Layer_1" /><style
     type="text/css"
     id="style5950">
	.st0{fill:#FFFFFF;}
	.st1{enable-background:new    ;}
</style><path
     style="fill:#ffffff;fill-opacity:1"
     d="M 72.854068,93.186591 C 69.688875,88.498915 66.011732,84.339508 59.028542,77.547821 50.436999,69.191885 47.32055,65.332271 45.313491,60.562192 l -0.622853,-1.480304 -1.558739,1.817201 c -2.166142,2.52532 -4.58137,5.719009 -6.183203,8.176125 -0.745267,1.143199 -1.433439,2.080506 -1.529269,2.082904 -0.09583,0.0024 -0.795506,-0.905918 -1.554834,-2.018482 C 30.247521,63.83992 26.232174,59.309189 18.25708,51.528847 8.7485492,42.252511 5.5546768,38.365354 3.1947948,33.197033 1.394598,29.254466 0.60097875,25.518526 0.5850027,20.91151 0.56956965,16.461078 1.2652654,13.55435 3.2076471,9.9536818 4.3709593,7.7972049 7.3595643,4.5154768 9.3234252,3.2380666 12.563049,1.1308256 15.273955,0.33704304 19.128266,0.36710392 c 3.175579,0.0247673 5.11137,0.52887377 7.927784,2.06450488 3.208984,1.7496766 5.627512,4.1826452 7.558639,7.6037662 l 0.826617,1.464407 0.736498,-1.368744 c 3.087305,-5.7376038 8.759767,-9.46835521 14.922954,-9.8147566 8.113523,-0.45601988 15.592303,5.1627733 18.267202,13.7241146 1.718289,5.499595 1.08151,12.603465 -1.669978,18.630201 -0.436807,0.956764 -0.621597,1.550143 -0.496952,1.595766 0.109137,0.03995 0.67628,0.423023 1.260318,0.85128 2.069648,1.517611 3.961623,3.734988 5.157874,6.044978 l 0.52968,1.022825 0.543074,-1.118488 c 1.321637,-2.721979 4.014574,-5.472879 6.90026,-7.048777 2.570695,-1.403878 3.855796,-1.706458 7.230836,-1.702517 2.634516,0.0031 3.006035,0.04733 4.443044,0.529249 8.124864,2.724765 12.784294,11.060027 11.511024,20.592055 -0.71322,5.33928 -2.78545,9.695535 -7.098942,14.923446 -0.998472,1.210138 -4.20301,4.561575 -7.121194,7.447637 -8.148893,8.059193 -11.996346,12.45083 -15.1402,17.281633 -0.599351,0.920953 -1.152653,1.717165 -1.229561,1.769358 -0.07691,0.05219 -0.676838,-0.700409 -1.333175,-1.672451 z m 2.9557,-8.037301 c 2.70164,-3.939568 3.67864,-5.039137 10.767638,-12.118492 2.432995,-2.429684 5.024552,-5.1195 5.759013,-5.977364 4.079634,-4.765097 5.895452,-9.182199 5.895452,-14.341103 0,-4.534259 -1.576338,-8.218546 -4.68352,-10.946533 -2.336261,-2.051147 -4.766691,-2.970058 -7.774427,-2.939402 -3.573254,0.03642 -6.181528,1.210083 -8.644393,3.889781 -0.898592,0.977704 -1.768126,2.147696 -2.167285,2.916171 l -0.666608,1.283377 -0.51593,-0.996387 c -0.904123,-1.746085 -2.029191,-3.185559 -3.3117,-4.237172 -2.508625,-2.056985 -4.652657,-2.852877 -7.69337,-2.855883 -2.278462,-0.0023 -3.540897,0.323036 -5.662703,1.459094 -1.201078,0.64308 -1.781422,1.1213 -3.07033,2.530031 -1.358182,1.484451 -1.705067,2.000511 -2.385264,3.548578 -1.319567,3.003219 -1.63638,5.869796 -1.05815,9.574339 0.909573,5.827355 3.316519,9.522148 11.218144,17.220462 6.16411,6.005507 8.724382,8.837028 11.18786,12.373155 0.678107,0.973373 1.254654,1.769768 1.281215,1.769768 0.02656,0 0.71252,-0.968589 1.524358,-2.15242 z M 38.635964,58.906143 c 0.714961,-0.956072 2.065029,-2.604342 3.000149,-3.66282 l 1.70022,-1.924508 -0.0082,-2.667321 c -0.0054,-1.77872 0.08839,-3.177237 0.281661,-4.197933 1.173622,-6.198115 5.172161,-11.233184 10.553355,-13.289072 1.849353,-0.706545 3.281823,-0.961453 5.413254,-0.963288 l 1.680442,-0.0015 0.532992,-1.865431 C 63.16045,25.537317 62.96633,20.734412 61.250505,16.989236 57.874837,9.6210828 50.140935,6.4015497 43.211508,9.4798114 40.225628,10.80623 37.815703,13.176702 36.095336,16.479485 l -0.543742,1.043882 -0.709904,-1.31936 C 33.286748,13.314211 31.446242,11.404443 28.793348,9.9281264 26.81147,8.8252254 25.155262,8.4227868 22.525887,8.4052079 19.824074,8.387145 18.348165,8.772935 16.003884,10.110002 c -2.70945,1.545343 -4.749646,3.847127 -6.097515,6.87932 -0.4677654,1.052294 -0.9724184,2.476676 -1.1214511,3.165293 -1.0874126,5.024472 0.042835,11.306318 2.8597661,15.894402 2.011101,3.275585 4.114916,5.68306 9.9229,11.355142 6.657147,6.501375 10.037681,10.285886 12.880804,14.420067 l 1.097021,1.595174 0.895311,-1.387472 c 0.492424,-0.763111 1.480282,-2.169714 2.195244,-3.125785 z"
     id="path6203"
     inkscape:connector-curvature="0" /><text
     xml:space="preserve"
     style="font-style:normal;font-variant:normal;font-weight:normal;font-stretch:normal;font-size:40.00004578px;line-height:125%;font-family:'Roboto Slab';-inkscape-font-specification:'Roboto Slab';letter-spacing:0px;word-spacing:0px;fill:#ffffff;fill-opacity:1;stroke:none;stroke-width:1px;stroke-linecap:butt;stroke-linejoin:miter;stroke-opacity:1"
     x="135.71002"
     y="36.370949"
     id="text6747"
     sodipodi:linespacing="125%"
     transform="scale(0.99999881,1.0000012)"><tspan
       sodipodi:role="line"
       x="135.71002"
       y="36.370949"
       id="tspan6755">HITCHED</tspan><tspan
       sodipodi:role="line"
       x="135.71002"
       y="86.371002"
       id="tspan6759">EVENTS</tspan></text>
</svg>