<?xml version="1.0" encoding="UTF-8" standalone="no"?>
<!-- Generator: Adobe Illustrator 20.0.0, SVG Export Plug-In . SVG Version: 6.00 Build 0)  -->

<svg
   xmlns:dc="http://purl.org/dc/elements/1.1/"
   xmlns:cc="http://creativecommons.org/ns#"
   xmlns:rdf="http://www.w3.org/1999/02/22-rdf-syntax-ns#"
   xmlns:svg="http://www.w3.org/2000/svg"
   xmlns="http://www.w3.org/2000/svg"
   xmlns:sodipodi="http://sodipodi.sourceforge.net/DTD/sodipodi-0.dtd"
   xmlns:inkscape="http://www.inkscape.org/namespaces/inkscape"
   version="1.1"
   id="Layer_1"
   x="0px"
   y="0px"
   viewBox="0 0 84.6 94.9"
   style="enable-background:new 0 0 84.6 94.9;"
   xml:space="preserve"
   inkscape:version="0.91 r13725"
   sodipodi:docname="profile.svg"><metadata
     id="metadata6853"><rdf:RDF><cc:Work
         rdf:about=""><dc:format>image/svg+xml</dc:format><dc:type
           rdf:resource="http://purl.org/dc/dcmitype/StillImage" /><dc:title></dc:title></cc:Work></rdf:RDF></metadata><defs
     id="defs6851" /><sodipodi:namedview
     pagecolor="#000000"
     bordercolor="#666666"
     borderopacity="1"
     objecttolerance="10"
     gridtolerance="10"
     guidetolerance="10"
     inkscape:pageopacity="0"
     inkscape:pageshadow="2"
     inkscape:window-width="1110"
     inkscape:window-height="719"
     id="namedview6849"
     showgrid="false"
     inkscape:zoom="2.4868282"
     inkscape:cx="42.299999"
     inkscape:cy="47.450001"
     inkscape:window-x="0"
     inkscape:window-y="0"
     inkscape:window-maximized="0"
     inkscape:current-layer="Layer_1" /><style
     type="text/css"
     id="style6837">
	.st0{fill:#FFFFFF;}
</style><path
     style="fill:#ffffff;fill-opacity:1"
     d="M 58.519448,85.705204 C 56.01259,81.814812 53.100264,78.36284 47.569517,72.72629 40.764944,65.791539 38.296689,62.588372 36.70708,58.629592 l -0.49331,-1.228533 -1.234528,1.50813 c -1.71561,2.095812 -3.628485,4.746315 -4.897156,6.785522 -0.590252,0.948763 -1.135296,1.726652 -1.211195,1.728642 -0.07587,0.002 -0.630042,-0.751838 -1.231439,-1.675176 C 24.774702,61.349841 21.594511,57.589701 15.278168,51.132646 7.7473299,43.434038 5.2177548,40.208011 3.3487082,35.918723 1.9229363,32.646711 1.2943839,29.546183 1.2817303,25.722732 1.2695094,22.029234 1.820505,19.616885 3.3588873,16.628621 4.2802408,14.83892 6.6472418,12.115351 8.2026369,11.055203 10.768447,9.3063641 12.915508,8.6475887 15.968154,8.6725373 c 2.515087,0.020552 4.048247,0.4389222 6.278877,1.7133717 2.541539,1.45209 4.457036,3.471257 5.986507,6.310511 l 0.654682,1.215339 0.583315,-1.135947 c 2.445176,-4.761746 6.937813,-7.8579683 11.819105,-8.1454535 6.425985,-0.3784596 12.349243,4.2846845 14.467786,11.3899045 1.360902,4.56422 0.856566,10.459857 -1.322638,15.461561 -0.345957,0.794036 -0.492312,1.286492 -0.393588,1.324356 0.08644,0.03316 0.535619,0.351075 0.998176,0.706494 1.639181,1.259494 3.137645,3.099738 4.085085,5.016843 l 0.419512,0.848861 0.430116,-0.928254 c 1.046749,-2.259023 3.179581,-4.542047 5.465065,-5.849915 2.036016,-1.165105 3.053826,-1.416222 5.726887,-1.412951 2.086555,0.0026 2.380802,0.03928 3.518926,0.439234 6.434971,2.261334 10.125279,9.178928 9.116839,17.08974 -0.564876,4.43117 -2.206101,8.04651 -5.622434,12.385253 -0.790796,1.004317 -3.32882,3.785738 -5.640043,6.180937 -6.453991,6.688478 -9.501213,10.333181 -11.991169,14.342357 -0.47469,0.76432 -0.912909,1.42511 -0.973822,1.468424 -0.06091,0.04332 -0.536063,-0.581285 -1.05589,-1.387999 z m 2.34094,-6.67031 c 2.139722,-3.269522 2.913515,-4.182076 8.528063,-10.057368 1.926958,-2.016441 3.979487,-4.248771 4.561194,-4.960729 3.231101,-3.954645 4.669247,-7.620482 4.669247,-11.901955 0,-3.763069 -1.248475,-6.820729 -3.709389,-9.084738 -1.850338,-1.702286 -3.775259,-2.464908 -6.157415,-2.439466 -2.830044,0.03023 -4.895825,1.004272 -6.846431,3.228205 -0.711691,0.811414 -1.400374,1.782413 -1.716512,2.420186 l -0.527961,1.065098 -0.408621,-0.82692 c -0.716071,-1.449109 -1.607136,-2.643757 -2.622895,-3.51651 -1.986848,-1.707131 -3.684939,-2.367657 -6.093215,-2.370152 -1.80456,-0.0019 -2.804415,0.268094 -4.484907,1.21093 -0.951266,0.533704 -1.410901,0.930589 -2.431728,2.099721 -1.07569,1.231975 -1.35043,1.660262 -1.889146,2.945033 -1.045111,2.492428 -1.296027,4.871456 -0.838065,7.945927 0.720388,4.836233 2.626713,7.902613 8.884865,14.291591 4.882028,4.984084 6.909783,7.334018 8.860881,10.268717 0.537069,0.807822 0.993701,1.468765 1.014737,1.468765 0.02107,0 0.564321,-0.803851 1.207298,-1.786335 z M 31.418419,57.255204 c 0.566254,-0.793461 1.635522,-2.161392 2.376144,-3.039844 l 1.346589,-1.597186 -0.0063,-2.21366 c -0.004,-1.476194 0.07002,-2.63685 0.223077,-3.483945 0.929517,-5.143934 4.096395,-9.322635 8.358351,-11.028855 1.464701,-0.586375 2.59923,-0.797928 4.287341,-0.799452 l 1.330923,-0.0013 0.422132,-1.548157 c 1.085555,-3.981034 0.93181,-7.967056 -0.427142,-11.07525 -2.67356,-6.11497 -8.798875,-8.786922 -14.287043,-6.232213 -2.364843,1.100819 -4.27352,3.068118 -5.636068,5.809162 l -0.430647,0.866337 -0.562247,-1.094962 c -1.231534,-2.398297 -2.689226,-3.98325 -4.790345,-5.208473 -1.569658,-0.915318 -2.88139,-1.249309 -4.963879,-1.263899 -2.139859,-0.01499 -3.308792,0.305183 -5.165482,1.414841 -2.145907,1.28251 -3.7617608,3.192805 -4.8292851,5.709279 -0.370474,0.873319 -0.7701633,2.055441 -0.8881987,2.626937 -0.8612401,4.169906 0.033919,9.38333 2.2649598,13.191068 1.59281,2.718471 3.259048,4.716481 7.859021,9.42385 5.27252,5.395616 7.949929,8.536453 10.201705,11.967489 l 0.868856,1.323866 0.709094,-1.15149 c 0.390001,-0.63332 1.172394,-1.800687 1.738649,-2.594149 z"
     id="path6203"
     inkscape:connector-curvature="0" /></svg>